<svg width="128" height="128" viewBox="0 0 128 128" fill="none" xmlns="http://www.w3.org/2000/svg">
  <circle cx="64" cy="64" r="58" fill="#F5F0E8" stroke="#2A241F" stroke-width="4"/>
  <circle cx="64" cy="64" r="49" fill="#EBE5DB" stroke="#2A241F" stroke-width="3"/>
  <path d="M30 27C37 20 49 16 64 16C79 16 91 20 98 27" stroke="#2A241F" stroke-width="4" stroke-linecap="round"/>
  <path d="M44 18L49 27" stroke="#2A241F" stroke-width="4" stroke-linecap="round"/>
  <path d="M84 18L79 27" stroke="#2A241F" stroke-width="4" stroke-linecap="round"/>
  <circle cx="43" cy="53" r="8" fill="white" stroke="#2A241F" stroke-width="3"/>
  <circle cx="85" cy="53" r="8" fill="white" stroke="#2A241F" stroke-width="3"/>
  <circle cx="46" cy="53" r="4" fill="#2A241F"/>
  <circle cx="82" cy="53" r="4" fill="#2A241F"/>
  <path d="M46 83C50 88 56 91 64 91C72 91 78 88 82 83" stroke="#2A241F" stroke-width="4" stroke-linecap="round"/>
  <path d="M43 76C43 64.402 52.402 55 64 55C75.598 55 85 64.402 85 76V78C85 80.761 82.761 83 80 83H48C45.239 83 43 80.761 43 78V76Z" fill="white" stroke="#2A241F" stroke-width="3"/>
  <path d="M52 76H76" stroke="#2A241F" stroke-width="3" stroke-linecap="round"/>
  <path d="M52 83H76" stroke="#2A241F" stroke-width="3" stroke-linecap="round"/>
  <path d="M63 42C63 36.477 67.477 32 73 32C78.523 32 83 36.477 83 42C83 48.312 78.297 50.892 76 53.5H70C67.229 50.714 63 48.346 63 42Z" fill="#F7F3EB" stroke="#2A241F" stroke-width="3"/>
  <path d="M70 56H76" stroke="#2A241F" stroke-width="3" stroke-linecap="round"/>
  <path d="M73 25V19" stroke="#2A241F" stroke-width="3" stroke-linecap="round"/>
  <path d="M89 34L94 30" stroke="#2A241F" stroke-width="3" stroke-linecap="round"/>
  <path d="M57 36L53 31" stroke="#2A241F" stroke-width="3" stroke-linecap="round"/>
  <path d="M63 62V84" stroke="#2A241F" stroke-width="3" stroke-linecap="round"/>
  <path d="M57 68L70 68" stroke="#2A241F" stroke-width="3" stroke-linecap="round"/>
  <path d="M57 75L70 75" stroke="#2A241F" stroke-width="3" stroke-linecap="round"/>
  <path d="M24 62C24 55 19 52 14 50" stroke="#2A241F" stroke-width="3" stroke-linecap="round"/>
  <path d="M104 62C104 55 109 52 114 50" stroke="#2A241F" stroke-width="3" stroke-linecap="round"/>
</svg>
